<svg xmlns="http://www.w3.org/2000/svg" xmlns:xlink="http://www.w3.org/1999/xlink" width="500" zoomAndPan="magnify" viewBox="0 0 375 374.999991" height="500" preserveAspectRatio="xMidYMid meet" version="1.0"><defs><g/><clipPath id="a584226b09"><path d="M 329.945312 196.292969 L 340.867188 196.292969 L 340.867188 207.214844 L 329.945312 207.214844 Z M 329.945312 196.292969 " clip-rule="nonzero"/></clipPath><clipPath id="519394105a"><path d="M 335.40625 196.292969 C 332.390625 196.292969 329.945312 198.738281 329.945312 201.753906 C 329.945312 204.769531 332.390625 207.214844 335.40625 207.214844 C 338.421875 207.214844 340.867188 204.769531 340.867188 201.753906 C 340.867188 198.738281 338.421875 196.292969 335.40625 196.292969 Z M 335.40625 196.292969 " clip-rule="nonzero"/></clipPath><clipPath id="71e61773df"><path d="M 37.5 153.390625 L 102.75 153.390625 L 102.75 221.640625 L 37.5 221.640625 Z M 37.5 153.390625 " clip-rule="nonzero"/></clipPath><clipPath id="58dbe864f4"><path d="M 74.828125 185.171875 L 45.824219 185.171875 C 44.699219 185.171875 43.886719 184.101562 44.1875 183.015625 L 52.152344 154.640625 C 52.355469 153.90625 53.023438 153.398438 53.785156 153.398438 L 82.789062 153.398438 C 83.914062 153.398438 84.730469 154.472656 84.425781 155.558594 L 76.460938 183.933594 C 76.257812 184.667969 75.589844 185.171875 74.828125 185.171875 Z M 55.988281 206.59375 L 60.089844 191.984375 C 60.394531 190.898438 59.578125 189.824219 58.453125 189.824219 L 43.542969 189.824219 C 42.785156 189.824219 42.113281 190.332031 41.910156 191.066406 L 37.808594 205.675781 C 37.503906 206.757812 38.320312 207.832031 39.445312 207.832031 L 54.355469 207.832031 C 55.117188 207.832031 55.785156 207.328125 55.988281 206.59375 Z M 63.535156 191.066406 L 55.570312 219.441406 C 55.265625 220.527344 56.082031 221.597656 57.207031 221.597656 L 86.210938 221.597656 C 86.972656 221.597656 87.640625 221.09375 87.84375 220.359375 L 95.808594 191.984375 C 96.113281 190.898438 95.296875 189.824219 94.171875 189.824219 L 65.167969 189.824219 C 64.40625 189.824219 63.738281 190.332031 63.535156 191.066406 Z M 84.007812 168.40625 L 79.90625 183.015625 C 79.605469 184.101562 80.417969 185.171875 81.542969 185.171875 L 96.453125 185.171875 C 97.214844 185.171875 97.882812 184.667969 98.085938 183.933594 L 102.1875 169.324219 C 102.492188 168.238281 101.675781 167.167969 100.550781 167.167969 L 85.640625 167.167969 C 84.882812 167.167969 84.214844 167.671875 84.007812 168.40625 Z M 84.007812 168.40625 " clip-rule="nonzero"/></clipPath><linearGradient x1="114.296442" gradientTransform="matrix(0.136399, 0, 0, 0.136399, 37.745522, 153.400056)" y1="-47.63397" x2="358.621829" gradientUnits="userSpaceOnUse" y2="547.633966" id="cc5d2ada5c"><stop stop-opacity="1" stop-color="rgb(54.899597%, 32.199097%, 100%)" offset="0"/><stop stop-opacity="1" stop-color="rgb(54.899597%, 32.199097%, 100%)" offset="0.0625"/><stop stop-opacity="1" stop-color="rgb(54.812622%, 32.302856%, 100%)" offset="0.09375"/><stop stop-opacity="1" stop-color="rgb(54.495239%, 32.687378%, 100%)" offset="0.0976562"/><stop stop-opacity="1" stop-color="rgb(54.264832%, 32.969666%, 100%)" offset="0.101562"/><stop stop-opacity="1" stop-color="rgb(54.032898%, 33.250427%, 100%)" offset="0.105469"/><stop stop-opacity="1" stop-color="rgb(53.80249%, 33.531189%, 100%)" offset="0.109375"/><stop stop-opacity="1" stop-color="rgb(53.570557%, 33.811951%, 100%)" offset="0.113281"/><stop stop-opacity="1" stop-color="rgb(53.340149%, 34.092712%, 100%)" offset="0.117187"/><stop stop-opacity="1" stop-color="rgb(53.108215%, 34.373474%, 100%)" offset="0.121094"/><stop stop-opacity="1" stop-color="rgb(52.876282%, 34.654236%, 100%)" offset="0.125"/><stop stop-opacity="1" stop-color="rgb(52.644348%, 34.934998%, 100%)" offset="0.128906"/><stop stop-opacity="1" stop-color="rgb(52.41394%, 35.215759%, 100%)" offset="0.132812"/><stop stop-opacity="1" stop-color="rgb(52.182007%, 35.496521%, 100%)" offset="0.136719"/><stop stop-opacity="1" stop-color="rgb(51.951599%, 35.778809%, 100%)" offset="0.140625"/><stop stop-opacity="1" stop-color="rgb(51.719666%, 36.05957%, 100%)" offset="0.144531"/><stop stop-opacity="1" stop-color="rgb(51.489258%, 36.340332%, 100%)" offset="0.148437"/><stop stop-opacity="1" stop-color="rgb(51.257324%, 36.621094%, 100%)" offset="0.152344"/><stop stop-opacity="1" stop-color="rgb(51.025391%, 36.901855%, 100%)" offset="0.15625"/><stop stop-opacity="1" stop-color="rgb(50.793457%, 37.182617%, 100%)" offset="0.160156"/><stop stop-opacity="1" stop-color="rgb(50.563049%, 37.463379%, 100%)" offset="0.164062"/><stop stop-opacity="1" stop-color="rgb(50.331116%, 37.744141%, 100%)" offset="0.167969"/><stop stop-opacity="1" stop-color="rgb(50.100708%, 38.024902%, 100%)" offset="0.171875"/><stop stop-opacity="1" stop-color="rgb(49.868774%, 38.305664%, 100%)" offset="0.175781"/><stop stop-opacity="1" stop-color="rgb(49.638367%, 38.586426%, 100%)" offset="0.179687"/><stop stop-opacity="1" stop-color="rgb(49.406433%, 38.867188%, 100%)" offset="0.183594"/><stop stop-opacity="1" stop-color="rgb(49.1745%, 39.149475%, 100%)" offset="0.1875"/><stop stop-opacity="1" stop-color="rgb(48.942566%, 39.430237%, 100%)" offset="0.191406"/><stop stop-opacity="1" stop-color="rgb(48.712158%, 39.710999%, 100%)" offset="0.195312"/><stop stop-opacity="1" stop-color="rgb(48.480225%, 39.99176%, 100%)" offset="0.199219"/><stop stop-opacity="1" stop-color="rgb(48.249817%, 40.272522%, 100%)" offset="0.203125"/><stop stop-opacity="1" stop-color="rgb(48.017883%, 40.553284%, 100%)" offset="0.207031"/><stop stop-opacity="1" stop-color="rgb(47.787476%, 40.834045%, 100%)" offset="0.210937"/><stop stop-opacity="1" stop-color="rgb(47.555542%, 41.114807%, 100%)" offset="0.214844"/><stop stop-opacity="1" stop-color="rgb(47.323608%, 41.395569%, 100%)" offset="0.21875"/><stop stop-opacity="1" stop-color="rgb(47.091675%, 41.676331%, 100%)" offset="0.222656"/><stop stop-opacity="1" stop-color="rgb(46.861267%, 41.958618%, 100%)" offset="0.226562"/><stop stop-opacity="1" stop-color="rgb(46.629333%, 42.23938%, 100%)" offset="0.230469"/><stop stop-opacity="1" stop-color="rgb(46.398926%, 42.520142%, 100%)" offset="0.234375"/><stop stop-opacity="1" stop-color="rgb(46.166992%, 42.800903%, 100%)" offset="0.238281"/><stop stop-opacity="1" stop-color="rgb(45.936584%, 43.081665%, 100%)" offset="0.242188"/><stop stop-opacity="1" stop-color="rgb(45.704651%, 43.362427%, 100%)" offset="0.246094"/><stop stop-opacity="1" stop-color="rgb(45.472717%, 43.643188%, 100%)" offset="0.25"/><stop stop-opacity="1" stop-color="rgb(45.240784%, 43.92395%, 100%)" offset="0.253906"/><stop stop-opacity="1" stop-color="rgb(45.010376%, 44.204712%, 100%)" offset="0.257812"/><stop stop-opacity="1" stop-color="rgb(44.778442%, 44.485474%, 100%)" offset="0.261719"/><stop stop-opacity="1" stop-color="rgb(44.548035%, 44.767761%, 100%)" offset="0.265625"/><stop stop-opacity="1" stop-color="rgb(44.316101%, 45.048523%, 100%)" offset="0.269531"/><stop stop-opacity="1" stop-color="rgb(44.085693%, 45.329285%, 100%)" offset="0.273437"/><stop stop-opacity="1" stop-color="rgb(43.85376%, 45.610046%, 100%)" offset="0.277344"/><stop stop-opacity="1" stop-color="rgb(43.621826%, 45.890808%, 100%)" offset="0.28125"/><stop stop-opacity="1" stop-color="rgb(43.389893%, 46.17157%, 100%)" offset="0.285156"/><stop stop-opacity="1" stop-color="rgb(43.159485%, 46.452332%, 100%)" offset="0.289062"/><stop stop-opacity="1" stop-color="rgb(42.927551%, 46.733093%, 100%)" offset="0.292969"/><stop stop-opacity="1" stop-color="rgb(42.697144%, 47.013855%, 100%)" offset="0.296875"/><stop stop-opacity="1" stop-color="rgb(42.46521%, 47.294617%, 100%)" offset="0.300781"/><stop stop-opacity="1" stop-color="rgb(42.234802%, 47.575378%, 100%)" offset="0.304687"/><stop stop-opacity="1" stop-color="rgb(42.002869%, 47.85614%, 100%)" offset="0.308594"/><stop stop-opacity="1" stop-color="rgb(41.770935%, 48.138428%, 100%)" offset="0.3125"/><stop stop-opacity="1" stop-color="rgb(41.539001%, 48.419189%, 100%)" offset="0.316406"/><stop stop-opacity="1" stop-color="rgb(41.308594%, 48.699951%, 100%)" offset="0.320312"/><stop stop-opacity="1" stop-color="rgb(41.07666%, 48.980713%, 100%)" offset="0.324219"/><stop stop-opacity="1" stop-color="rgb(40.846252%, 49.261475%, 100%)" offset="0.328125"/><stop stop-opacity="1" stop-color="rgb(40.614319%, 49.542236%, 100%)" offset="0.332031"/><stop stop-opacity="1" stop-color="rgb(40.383911%, 49.822998%, 100%)" offset="0.335937"/><stop stop-opacity="1" stop-color="rgb(40.151978%, 50.10376%, 100%)" offset="0.339844"/><stop stop-opacity="1" stop-color="rgb(39.920044%, 50.384521%, 100%)" offset="0.34375"/><stop stop-opacity="1" stop-color="rgb(39.68811%, 50.665283%, 100%)" offset="0.347656"/><stop stop-opacity="1" stop-color="rgb(39.457703%, 50.947571%, 100%)" offset="0.351562"/><stop stop-opacity="1" stop-color="rgb(39.225769%, 51.228333%, 100%)" offset="0.355469"/><stop stop-opacity="1" stop-color="rgb(38.995361%, 51.509094%, 100%)" offset="0.359375"/><stop stop-opacity="1" stop-color="rgb(38.763428%, 51.789856%, 100%)" offset="0.363281"/><stop stop-opacity="1" stop-color="rgb(38.53302%, 52.070618%, 100%)" offset="0.367187"/><stop stop-opacity="1" stop-color="rgb(38.301086%, 52.351379%, 100%)" offset="0.371094"/><stop stop-opacity="1" stop-color="rgb(38.069153%, 52.632141%, 100%)" offset="0.375"/><stop stop-opacity="1" stop-color="rgb(37.837219%, 52.912903%, 100%)" offset="0.378906"/><stop stop-opacity="1" stop-color="rgb(37.606812%, 53.193665%, 100%)" offset="0.382812"/><stop stop-opacity="1" stop-color="rgb(37.374878%, 53.474426%, 100%)" offset="0.386719"/><stop stop-opacity="1" stop-color="rgb(37.14447%, 53.755188%, 100%)" offset="0.390625"/><stop stop-opacity="1" stop-color="rgb(36.912537%, 54.03595%, 100%)" offset="0.394531"/><stop stop-opacity="1" stop-color="rgb(36.682129%, 54.318237%, 100%)" offset="0.398437"/><stop stop-opacity="1" stop-color="rgb(36.450195%, 54.598999%, 100%)" offset="0.402344"/><stop stop-opacity="1" stop-color="rgb(36.218262%, 54.879761%, 100%)" offset="0.40625"/><stop stop-opacity="1" stop-color="rgb(35.986328%, 55.160522%, 100%)" offset="0.410156"/><stop stop-opacity="1" stop-color="rgb(35.75592%, 55.441284%, 100%)" offset="0.414062"/><stop stop-opacity="1" stop-color="rgb(35.523987%, 55.722046%, 100%)" offset="0.417969"/><stop stop-opacity="1" stop-color="rgb(35.293579%, 56.002808%, 100%)" offset="0.421875"/><stop stop-opacity="1" stop-color="rgb(35.061646%, 56.283569%, 100%)" offset="0.425781"/><stop stop-opacity="1" stop-color="rgb(34.831238%, 56.564331%, 100%)" offset="0.429687"/><stop stop-opacity="1" stop-color="rgb(34.599304%, 56.845093%, 100%)" offset="0.433594"/><stop stop-opacity="1" stop-color="rgb(34.367371%, 57.12738%, 100%)" offset="0.4375"/><stop stop-opacity="1" stop-color="rgb(34.135437%, 57.408142%, 100%)" offset="0.441406"/><stop stop-opacity="1" stop-color="rgb(33.905029%, 57.688904%, 100%)" offset="0.445312"/><stop stop-opacity="1" stop-color="rgb(33.673096%, 57.969666%, 100%)" offset="0.449219"/><stop stop-opacity="1" stop-color="rgb(33.442688%, 58.250427%, 100%)" offset="0.453125"/><stop stop-opacity="1" stop-color="rgb(33.210754%, 58.531189%, 100%)" offset="0.457031"/><stop stop-opacity="1" stop-color="rgb(32.980347%, 58.811951%, 100%)" offset="0.460938"/><stop stop-opacity="1" stop-color="rgb(32.748413%, 59.092712%, 100%)" offset="0.464844"/><stop stop-opacity="1" stop-color="rgb(32.516479%, 59.373474%, 100%)" offset="0.46875"/><stop stop-opacity="1" stop-color="rgb(32.284546%, 59.654236%, 100%)" offset="0.472656"/><stop stop-opacity="1" stop-color="rgb(32.054138%, 59.936523%, 100%)" offset="0.476562"/><stop stop-opacity="1" stop-color="rgb(31.822205%, 60.217285%, 100%)" offset="0.480469"/><stop stop-opacity="1" stop-color="rgb(31.591797%, 60.498047%, 100%)" offset="0.484375"/><stop stop-opacity="1" stop-color="rgb(31.359863%, 60.778809%, 100%)" offset="0.488281"/><stop stop-opacity="1" stop-color="rgb(31.129456%, 61.05957%, 100%)" offset="0.492188"/><stop stop-opacity="1" stop-color="rgb(30.897522%, 61.340332%, 100%)" offset="0.496094"/><stop stop-opacity="1" stop-color="rgb(30.665588%, 61.621094%, 100%)" offset="0.5"/><stop stop-opacity="1" stop-color="rgb(30.433655%, 61.901855%, 100%)" offset="0.503906"/><stop stop-opacity="1" stop-color="rgb(30.203247%, 62.182617%, 100%)" offset="0.507812"/><stop stop-opacity="1" stop-color="rgb(29.971313%, 62.463379%, 100%)" offset="0.511719"/><stop stop-opacity="1" stop-color="rgb(29.740906%, 62.744141%, 100%)" offset="0.515625"/><stop stop-opacity="1" stop-color="rgb(29.508972%, 63.024902%, 100%)" offset="0.519531"/><stop stop-opacity="1" stop-color="rgb(29.278564%, 63.30719%, 100%)" offset="0.523437"/><stop stop-opacity="1" stop-color="rgb(29.046631%, 63.587952%, 100%)" offset="0.527344"/><stop stop-opacity="1" stop-color="rgb(28.814697%, 63.868713%, 100%)" offset="0.53125"/><stop stop-opacity="1" stop-color="rgb(28.582764%, 64.149475%, 100%)" offset="0.535156"/><stop stop-opacity="1" stop-color="rgb(28.352356%, 64.430237%, 100%)" offset="0.539062"/><stop stop-opacity="1" stop-color="rgb(28.120422%, 64.710999%, 100%)" offset="0.542969"/><stop stop-opacity="1" stop-color="rgb(27.890015%, 64.99176%, 100%)" offset="0.546875"/><stop stop-opacity="1" stop-color="rgb(27.658081%, 65.272522%, 100%)" offset="0.550781"/><stop stop-opacity="1" stop-color="rgb(27.427673%, 65.553284%, 100%)" offset="0.554688"/><stop stop-opacity="1" stop-color="rgb(27.19574%, 65.834045%, 100%)" offset="0.558594"/><stop stop-opacity="1" stop-color="rgb(26.963806%, 66.116333%, 100%)" offset="0.5625"/><stop stop-opacity="1" stop-color="rgb(26.731873%, 66.397095%, 100%)" offset="0.566406"/><stop stop-opacity="1" stop-color="rgb(26.501465%, 66.677856%, 100%)" offset="0.570312"/><stop stop-opacity="1" stop-color="rgb(26.269531%, 66.958618%, 100%)" offset="0.574219"/><stop stop-opacity="1" stop-color="rgb(26.039124%, 67.23938%, 100%)" offset="0.578125"/><stop stop-opacity="1" stop-color="rgb(25.80719%, 67.520142%, 100%)" offset="0.582031"/><stop stop-opacity="1" stop-color="rgb(25.576782%, 67.800903%, 100%)" offset="0.585938"/><stop stop-opacity="1" stop-color="rgb(25.344849%, 68.081665%, 100%)" offset="0.589844"/><stop stop-opacity="1" stop-color="rgb(25.112915%, 68.362427%, 100%)" offset="0.59375"/><stop stop-opacity="1" stop-color="rgb(24.880981%, 68.643188%, 100%)" offset="0.597656"/><stop stop-opacity="1" stop-color="rgb(24.650574%, 68.92395%, 100%)" offset="0.601562"/><stop stop-opacity="1" stop-color="rgb(24.41864%, 69.204712%, 100%)" offset="0.605469"/><stop stop-opacity="1" stop-color="rgb(24.188232%, 69.487%, 100%)" offset="0.609375"/><stop stop-opacity="1" stop-color="rgb(23.956299%, 69.767761%, 100%)" offset="0.613281"/><stop stop-opacity="1" stop-color="rgb(23.725891%, 70.048523%, 100%)" offset="0.617187"/><stop stop-opacity="1" stop-color="rgb(23.493958%, 70.329285%, 100%)" offset="0.621094"/><stop stop-opacity="1" stop-color="rgb(23.262024%, 70.610046%, 100%)" offset="0.625"/><stop stop-opacity="1" stop-color="rgb(23.03009%, 70.890808%, 100%)" offset="0.628906"/><stop stop-opacity="1" stop-color="rgb(22.799683%, 71.17157%, 100%)" offset="0.632812"/><stop stop-opacity="1" stop-color="rgb(22.567749%, 71.452332%, 100%)" offset="0.636719"/><stop stop-opacity="1" stop-color="rgb(22.337341%, 71.733093%, 100%)" offset="0.640625"/><stop stop-opacity="1" stop-color="rgb(22.105408%, 72.013855%, 100%)" offset="0.644531"/><stop stop-opacity="1" stop-color="rgb(21.875%, 72.296143%, 100%)" offset="0.648437"/><stop stop-opacity="1" stop-color="rgb(21.643066%, 72.576904%, 100%)" offset="0.652344"/><stop stop-opacity="1" stop-color="rgb(21.411133%, 72.857666%, 100%)" offset="0.65625"/><stop stop-opacity="1" stop-color="rgb(21.179199%, 73.138428%, 100%)" offset="0.660156"/><stop stop-opacity="1" stop-color="rgb(20.948792%, 73.419189%, 100%)" offset="0.664062"/><stop stop-opacity="1" stop-color="rgb(20.716858%, 73.699951%, 100%)" offset="0.667969"/><stop stop-opacity="1" stop-color="rgb(20.48645%, 73.980713%, 100%)" offset="0.671875"/><stop stop-opacity="1" stop-color="rgb(20.254517%, 74.261475%, 100%)" offset="0.675781"/><stop stop-opacity="1" stop-color="rgb(20.024109%, 74.542236%, 100%)" offset="0.679688"/><stop stop-opacity="1" stop-color="rgb(19.792175%, 74.822998%, 100%)" offset="0.683594"/><stop stop-opacity="1" stop-color="rgb(19.560242%, 75.105286%, 100%)" offset="0.6875"/><stop stop-opacity="1" stop-color="rgb(19.328308%, 75.386047%, 100%)" offset="0.691406"/><stop stop-opacity="1" stop-color="rgb(19.0979%, 75.666809%, 100%)" offset="0.695312"/><stop stop-opacity="1" stop-color="rgb(18.865967%, 75.947571%, 100%)" offset="0.699219"/><stop stop-opacity="1" stop-color="rgb(18.635559%, 76.228333%, 100%)" offset="0.703125"/><stop stop-opacity="1" stop-color="rgb(18.403625%, 76.509094%, 100%)" offset="0.707031"/><stop stop-opacity="1" stop-color="rgb(18.173218%, 76.789856%, 100%)" offset="0.710937"/><stop stop-opacity="1" stop-color="rgb(17.941284%, 77.070618%, 100%)" offset="0.714844"/><stop stop-opacity="1" stop-color="rgb(17.709351%, 77.351379%, 100%)" offset="0.71875"/><stop stop-opacity="1" stop-color="rgb(17.477417%, 77.632141%, 100%)" offset="0.722656"/><stop stop-opacity="1" stop-color="rgb(17.247009%, 77.912903%, 100%)" offset="0.726562"/><stop stop-opacity="1" stop-color="rgb(17.015076%, 78.193665%, 100%)" offset="0.730469"/><stop stop-opacity="1" stop-color="rgb(16.784668%, 78.475952%, 100%)" offset="0.734375"/><stop stop-opacity="1" stop-color="rgb(16.552734%, 78.756714%, 100%)" offset="0.738281"/><stop stop-opacity="1" stop-color="rgb(16.322327%, 79.037476%, 100%)" offset="0.742187"/><stop stop-opacity="1" stop-color="rgb(16.090393%, 79.318237%, 100%)" offset="0.746094"/><stop stop-opacity="1" stop-color="rgb(15.858459%, 79.598999%, 100%)" offset="0.75"/><stop stop-opacity="1" stop-color="rgb(15.626526%, 79.879761%, 100%)" offset="0.753906"/><stop stop-opacity="1" stop-color="rgb(15.396118%, 80.160522%, 100%)" offset="0.757812"/><stop stop-opacity="1" stop-color="rgb(15.164185%, 80.441284%, 100%)" offset="0.761719"/><stop stop-opacity="1" stop-color="rgb(14.933777%, 80.722046%, 100%)" offset="0.765625"/><stop stop-opacity="1" stop-color="rgb(14.701843%, 81.002808%, 100%)" offset="0.769531"/><stop stop-opacity="1" stop-color="rgb(14.471436%, 81.285095%, 100%)" offset="0.773438"/><stop stop-opacity="1" stop-color="rgb(14.239502%, 81.565857%, 100%)" offset="0.777344"/><stop stop-opacity="1" stop-color="rgb(14.007568%, 81.846619%, 100%)" offset="0.78125"/><stop stop-opacity="1" stop-color="rgb(13.775635%, 82.12738%, 100%)" offset="0.785156"/><stop stop-opacity="1" stop-color="rgb(13.545227%, 82.408142%, 100%)" offset="0.789062"/><stop stop-opacity="1" stop-color="rgb(13.313293%, 82.688904%, 100%)" offset="0.792969"/><stop stop-opacity="1" stop-color="rgb(13.082886%, 82.969666%, 100%)" offset="0.796875"/><stop stop-opacity="1" stop-color="rgb(12.850952%, 83.250427%, 100%)" offset="0.800781"/><stop stop-opacity="1" stop-color="rgb(12.620544%, 83.531189%, 100%)" offset="0.804688"/><stop stop-opacity="1" stop-color="rgb(12.388611%, 83.811951%, 100%)" offset="0.808594"/><stop stop-opacity="1" stop-color="rgb(12.156677%, 84.092712%, 100%)" offset="0.8125"/><stop stop-opacity="1" stop-color="rgb(11.924744%, 84.373474%, 100%)" offset="0.816406"/><stop stop-opacity="1" stop-color="rgb(11.694336%, 84.655762%, 100%)" offset="0.820312"/><stop stop-opacity="1" stop-color="rgb(11.462402%, 84.936523%, 100%)" offset="0.824219"/><stop stop-opacity="1" stop-color="rgb(11.231995%, 85.217285%, 100%)" offset="0.828125"/><stop stop-opacity="1" stop-color="rgb(11.114502%, 85.357666%, 100%)" offset="0.84375"/><stop stop-opacity="1" stop-color="rgb(10.998535%, 85.499573%, 100%)" offset="0.875"/><stop stop-opacity="1" stop-color="rgb(10.998535%, 85.499573%, 100%)" offset="1"/></linearGradient></defs><g fill="#ffffff" fill-opacity="1"><g transform="translate(111.227767, 206.687499)"><g><path d="M 20.453125 0.5 C 17.078125 0.5 14.050781 -0.226562 11.375 -1.6875 C 8.707031 -3.15625 6.609375 -5.257812 5.078125 -8 C 3.546875 -10.738281 2.78125 -13.945312 2.78125 -17.625 C 2.78125 -21.289062 3.546875 -24.492188 5.078125 -27.234375 C 6.609375 -29.972656 8.707031 -32.078125 11.375 -33.546875 C 14.050781 -35.015625 17.078125 -35.75 20.453125 -35.75 C 22.734375 -35.75 24.773438 -35.476562 26.578125 -34.9375 C 28.378906 -34.394531 30.171875 -33.617188 31.953125 -32.609375 C 32.691406 -32.203125 33.0625 -31.5625 33.0625 -30.6875 C 33.0625 -30.1875 32.875 -29.742188 32.5 -29.359375 C 32.132812 -28.972656 31.648438 -28.78125 31.046875 -28.78125 C 30.710938 -28.78125 30.410156 -28.847656 30.140625 -28.984375 C 28.660156 -29.753906 27.210938 -30.335938 25.796875 -30.734375 C 24.378906 -31.140625 22.75 -31.34375 20.90625 -31.34375 C 18.007812 -31.34375 15.539062 -30.742188 13.5 -29.546875 C 11.46875 -28.359375 9.9375 -26.726562 8.90625 -24.65625 C 7.882812 -22.59375 7.375 -20.25 7.375 -17.625 C 7.375 -15 7.882812 -12.648438 8.90625 -10.578125 C 9.9375 -8.503906 11.46875 -6.867188 13.5 -5.671875 C 15.539062 -4.484375 18.007812 -3.890625 20.90625 -3.890625 C 22.75 -3.890625 24.378906 -4.085938 25.796875 -4.484375 C 27.210938 -4.890625 28.660156 -5.484375 30.140625 -6.265625 C 30.410156 -6.398438 30.710938 -6.46875 31.046875 -6.46875 C 31.648438 -6.46875 32.132812 -6.28125 32.5 -5.90625 C 32.875 -5.53125 33.0625 -5.078125 33.0625 -4.546875 C 33.0625 -3.671875 32.691406 -3.03125 31.953125 -2.625 C 30.171875 -1.613281 28.378906 -0.835938 26.578125 -0.296875 C 24.773438 0.234375 22.734375 0.5 20.453125 0.5 Z M 20.453125 0.5 "/></g></g></g><g fill="#ffffff" fill-opacity="1"><g transform="translate(146.301494, 206.687499)"><g><path d="M 16.15625 0.25 C 15.519531 0.25 14.972656 0.03125 14.515625 -0.40625 C 14.054688 -0.84375 13.828125 -1.378906 13.828125 -2.015625 L 13.828125 -14.890625 L 1.765625 -31.8125 C 1.492188 -32.25 1.359375 -32.703125 1.359375 -33.171875 C 1.359375 -33.804688 1.566406 -34.347656 1.984375 -34.796875 C 2.410156 -35.253906 2.941406 -35.484375 3.578125 -35.484375 C 4.421875 -35.484375 5.097656 -35.097656 5.609375 -34.328125 L 16.15625 -18.984375 L 26.703125 -34.328125 C 27.210938 -35.097656 27.882812 -35.484375 28.71875 -35.484375 C 29.363281 -35.484375 29.90625 -35.253906 30.34375 -34.796875 C 30.78125 -34.347656 30.984375 -33.804688 30.953125 -33.171875 C 30.953125 -32.703125 30.816406 -32.25 30.546875 -31.8125 L 18.421875 -14.890625 L 18.421875 -2.015625 C 18.421875 -1.378906 18.203125 -0.84375 17.765625 -0.40625 C 17.328125 0.03125 16.789062 0.25 16.15625 0.25 Z M 16.15625 0.25 "/></g></g></g><g fill="#ffffff" fill-opacity="1"><g transform="translate(178.549145, 206.687499)"><g><path d="M 16.96875 0.25 C 15.582031 0.25 14.535156 -0.519531 13.828125 -2.0625 L 1.359375 -32.3125 C 1.265625 -32.582031 1.21875 -32.867188 1.21875 -33.171875 C 1.21875 -33.878906 1.414062 -34.441406 1.8125 -34.859375 C 2.21875 -35.273438 2.773438 -35.484375 3.484375 -35.484375 C 3.953125 -35.484375 4.378906 -35.335938 4.765625 -35.046875 C 5.148438 -34.765625 5.445312 -34.390625 5.65625 -33.921875 L 17.515625 -4.34375 L 29.375 -33.921875 C 29.582031 -34.390625 29.878906 -34.765625 30.265625 -35.046875 C 30.648438 -35.335938 31.078125 -35.484375 31.546875 -35.484375 C 32.253906 -35.484375 32.8125 -35.273438 33.21875 -34.859375 C 33.625 -34.441406 33.828125 -33.878906 33.828125 -33.171875 C 33.828125 -32.867188 33.773438 -32.582031 33.671875 -32.3125 L 21.203125 -2.0625 C 20.492188 -0.519531 19.453125 0.25 18.078125 0.25 Z M 16.96875 0.25 "/></g></g></g><g fill="#ffffff" fill-opacity="1"><g transform="translate(213.572408, 206.687499)"><g><path d="M 7.171875 0 C 6.523438 0 5.984375 -0.21875 5.546875 -0.65625 C 5.109375 -1.09375 4.890625 -1.628906 4.890625 -2.265625 L 4.890625 -32.921875 C 4.890625 -33.554688 5.109375 -34.097656 5.546875 -34.546875 C 5.984375 -35.003906 6.523438 -35.234375 7.171875 -35.234375 L 27.40625 -35.234375 C 28.019531 -35.234375 28.535156 -35.019531 28.953125 -34.59375 C 29.367188 -34.175781 29.578125 -33.664062 29.578125 -33.0625 C 29.578125 -32.457031 29.367188 -31.953125 28.953125 -31.546875 C 28.535156 -31.148438 28.019531 -30.953125 27.40625 -30.953125 L 9.484375 -30.953125 L 9.484375 -19.796875 L 25.59375 -19.796875 C 26.195312 -19.796875 26.707031 -19.582031 27.125 -19.15625 C 27.550781 -18.738281 27.765625 -18.226562 27.765625 -17.625 C 27.765625 -17.007812 27.550781 -16.5 27.125 -16.09375 C 26.707031 -15.695312 26.195312 -15.5 25.59375 -15.5 L 9.484375 -15.5 L 9.484375 -4.296875 L 27.40625 -4.296875 C 28.019531 -4.296875 28.535156 -4.082031 28.953125 -3.65625 C 29.367188 -3.238281 29.578125 -2.726562 29.578125 -2.125 C 29.578125 -1.519531 29.367188 -1.015625 28.953125 -0.609375 C 28.535156 -0.203125 28.019531 0 27.40625 0 Z M 7.171875 0 "/></g></g></g><g fill="#ffffff" fill-opacity="1"><g transform="translate(245.769595, 206.687499)"><g><path d="M 7.171875 0.25 C 6.523438 0.25 5.984375 0.03125 5.546875 -0.40625 C 5.109375 -0.84375 4.890625 -1.378906 4.890625 -2.015625 L 4.890625 -32.921875 C 4.890625 -33.554688 5.109375 -34.097656 5.546875 -34.546875 C 5.984375 -35.003906 6.523438 -35.234375 7.171875 -35.234375 L 18.9375 -35.234375 C 23.507812 -35.234375 26.9375 -34.289062 29.21875 -32.40625 C 31.507812 -30.519531 32.65625 -28.046875 32.65625 -24.984375 C 32.65625 -22.960938 32.09375 -21.117188 30.96875 -19.453125 C 29.84375 -17.796875 28.203125 -16.597656 26.046875 -15.859375 C 28.472656 -15.210938 30.128906 -13.703125 31.015625 -11.328125 C 31.910156 -8.960938 32.359375 -6.632812 32.359375 -4.34375 L 32.359375 -2.015625 C 32.359375 -1.378906 32.140625 -0.84375 31.703125 -0.40625 C 31.265625 0.03125 30.726562 0.25 30.09375 0.25 C 29.382812 0.25 28.816406 0.0390625 28.390625 -0.375 C 27.972656 -0.800781 27.765625 -1.347656 27.765625 -2.015625 L 27.765625 -3.53125 C 27.765625 -5.21875 27.613281 -6.773438 27.3125 -8.203125 C 27.007812 -9.628906 26.285156 -10.90625 25.140625 -12.03125 C 23.992188 -13.164062 22.257812 -13.734375 19.9375 -13.734375 L 9.484375 -13.734375 L 9.484375 -2.015625 C 9.484375 -1.378906 9.253906 -0.84375 8.796875 -0.40625 C 8.347656 0.03125 7.804688 0.25 7.171875 0.25 Z M 18.625 -18.078125 C 21.519531 -18.078125 23.816406 -18.644531 25.515625 -19.78125 C 27.210938 -20.925781 28.0625 -22.546875 28.0625 -24.640625 C 28.0625 -26.660156 27.328125 -28.207031 25.859375 -29.28125 C 24.398438 -30.351562 21.90625 -30.890625 18.375 -30.890625 L 9.484375 -30.890625 L 9.484375 -18.078125 Z M 18.625 -18.078125 "/></g></g></g><g fill="#ffffff" fill-opacity="1"><g transform="translate(281.701242, 206.687499)"><g><path d="M 7.171875 0.25 C 6.523438 0.25 5.984375 0.03125 5.546875 -0.40625 C 5.109375 -0.84375 4.890625 -1.378906 4.890625 -2.015625 L 4.890625 -33.171875 C 4.890625 -33.804688 5.109375 -34.347656 5.546875 -34.796875 C 5.984375 -35.253906 6.523438 -35.484375 7.171875 -35.484375 C 7.804688 -35.484375 8.347656 -35.253906 8.796875 -34.796875 C 9.253906 -34.347656 9.484375 -33.804688 9.484375 -33.171875 L 9.484375 -2.015625 C 9.484375 -1.378906 9.253906 -0.84375 8.796875 -0.40625 C 8.347656 0.03125 7.804688 0.25 7.171875 0.25 Z M 7.171875 0.25 "/></g></g></g><g fill="#ffffff" fill-opacity="1"><g transform="translate(296.083996, 206.687499)"><g><path d="M 4.34375 0.25 C 3.769531 0.25 3.269531 0.0390625 2.84375 -0.375 C 2.425781 -0.800781 2.21875 -1.300781 2.21875 -1.875 C 2.21875 -2.40625 2.367188 -2.875 2.671875 -3.28125 L 14.34375 -17.625 L 2.78125 -31.859375 C 2.476562 -32.265625 2.328125 -32.734375 2.328125 -33.265625 C 2.328125 -33.910156 2.535156 -34.441406 2.953125 -34.859375 C 3.367188 -35.273438 3.898438 -35.484375 4.546875 -35.484375 C 4.910156 -35.484375 5.257812 -35.398438 5.59375 -35.234375 C 5.9375 -35.066406 6.207031 -34.847656 6.40625 -34.578125 L 17.0625 -21.046875 L 27.71875 -34.6875 C 28.082031 -35.21875 28.632812 -35.484375 29.375 -35.484375 C 29.988281 -35.484375 30.515625 -35.273438 30.953125 -34.859375 C 31.390625 -34.441406 31.609375 -33.925781 31.609375 -33.3125 C 31.609375 -32.84375 31.472656 -32.425781 31.203125 -32.0625 L 19.53125 -17.671875 L 31.203125 -3.328125 C 31.503906 -2.992188 31.65625 -2.554688 31.65625 -2.015625 C 31.65625 -1.378906 31.441406 -0.84375 31.015625 -0.40625 C 30.597656 0.03125 30.050781 0.25 29.375 0.25 C 28.632812 0.25 28.03125 -0.0664062 27.5625 -0.703125 L 16.765625 -14.28125 L 6.109375 -0.65625 C 5.597656 -0.0507812 5.007812 0.25 4.34375 0.25 Z M 4.34375 0.25 "/></g></g></g><g clip-path="url(#a584226b09)"><g clip-path="url(#519394105a)"><path fill="#8c52ff" d="M 329.945312 196.292969 L 340.867188 196.292969 L 340.867188 207.214844 L 329.945312 207.214844 Z M 329.945312 196.292969 " fill-opacity="1" fill-rule="nonzero"/></g></g><g clip-path="url(#71e61773df)"><g clip-path="url(#58dbe864f4)"><path fill="url(#cc5d2ada5c)" d="M 37.503906 153.398438 L 37.503906 221.597656 L 102.492188 221.597656 L 102.492188 153.398438 Z M 37.503906 153.398438 " fill-rule="nonzero"/></g></g></svg>